# Упрощённая 3D-модель квартиры
mtllib apartment_model_scanned.mtl
v 2.4427 0.0000 10.1603
v 2.8092 0.0000 10.1603
v 2.8092 0.0000 10.2824
v 2.4427 0.0000 10.2824
v 2.4427 2.7000 10.1603
v 2.8092 2.7000 10.1603
v 2.8092 2.7000 10.2824
v 2.4427 2.7000 10.2824
v 7.3282 0.0000 10.1603
v 7.6947 0.0000 10.1603
v 7.6947 0.0000 10.2824
v 7.3282 0.0000 10.2824
v 7.3282 2.7000 10.1603
v 7.6947 2.7000 10.1603
v 7.6947 2.7000 10.2824
v 7.3282 2.7000 10.2824
v 2.4427 0.0000 8.4504
v 2.6870 0.0000 8.4504
v 2.6870 0.0000 10.1603
v 2.4427 0.0000 10.1603
v 2.4427 2.7000 8.4504
v 2.6870 2.7000 8.4504
v 2.6870 2.7000 10.1603
v 2.4427 2.7000 10.1603
v 7.4504 0.0000 8.4504
v 7.6947 0.0000 8.4504
v 7.6947 0.0000 10.1603
v 7.4504 0.0000 10.1603
v 7.4504 2.7000 8.4504
v 7.6947 2.7000 8.4504
v 7.6947 2.7000 10.1603
v 7.4504 2.7000 10.1603
v 0.9771 0.0000 8.3282
v 4.2748 0.0000 8.3282
v 4.2748 0.0000 8.4504
v 0.9771 0.0000 8.4504
v 0.9771 2.7000 8.3282
v 4.2748 2.7000 8.3282
v 4.2748 2.7000 8.4504
v 0.9771 2.7000 8.4504
v 5.9847 0.0000 8.3282
v 10.7481 0.0000 8.3282
v 10.7481 0.0000 8.4504
v 5.9847 0.0000 8.4504
v 5.9847 2.7000 8.3282
v 10.7481 2.7000 8.3282
v 10.7481 2.7000 8.4504
v 5.9847 2.7000 8.4504
v 0.9771 0.0000 8.2061
v 2.6870 0.0000 8.2061
v 2.6870 0.0000 8.3282
v 0.9771 0.0000 8.3282
v 0.9771 2.7000 8.2061
v 2.6870 2.7000 8.2061
v 2.6870 2.7000 8.3282
v 0.9771 2.7000 8.3282
v 7.4504 0.0000 8.2061
v 10.7481 0.0000 8.2061
v 10.7481 0.0000 8.3282
v 7.4504 0.0000 8.3282
v 7.4504 2.7000 8.2061
v 10.7481 2.7000 8.2061
v 10.7481 2.7000 8.3282
v 7.4504 2.7000 8.3282
v 8.7939 0.0000 5.6412
v 9.1603 0.0000 5.6412
v 9.1603 0.0000 8.2061
v 8.7939 0.0000 8.2061
v 8.7939 2.7000 5.6412
v 9.1603 2.7000 5.6412
v 9.1603 2.7000 8.2061
v 8.7939 2.7000 8.2061
v 8.7939 0.0000 4.2977
v 8.9160 0.0000 4.2977
v 8.9160 0.0000 5.6412
v 8.7939 0.0000 5.6412
v 8.7939 2.7000 4.2977
v 8.9160 2.7000 4.2977
v 8.9160 2.7000 5.6412
v 8.7939 2.7000 5.6412
v 12.7023 0.0000 3.8092
v 12.9466 0.0000 3.8092
v 12.9466 0.0000 8.4504
v 12.7023 0.0000 8.4504
v 12.7023 2.7000 3.8092
v 12.9466 2.7000 3.8092
v 12.9466 2.7000 8.4504
v 12.7023 2.7000 8.4504
v 10.0153 0.0000 3.8092
v 10.1374 0.0000 3.8092
v 10.1374 0.0000 4.4198
v 10.0153 0.0000 4.4198
v 10.0153 2.7000 3.8092
v 10.1374 2.7000 3.8092
v 10.1374 2.7000 4.4198
v 10.0153 2.7000 4.4198
v 10.0153 0.0000 3.6870
v 12.9466 0.0000 3.6870
v 12.9466 0.0000 3.8092
v 10.0153 0.0000 3.8092
v 10.0153 2.7000 3.6870
v 12.9466 2.7000 3.6870
v 12.9466 2.7000 3.8092
v 10.0153 2.7000 3.8092
v 8.7939 0.0000 3.4427
v 8.9160 0.0000 3.4427
v 8.9160 0.0000 3.5649
v 8.7939 0.0000 3.5649
v 8.7939 2.7000 3.4427
v 8.9160 2.7000 3.4427
v 8.9160 2.7000 3.5649
v 8.7939 2.7000 3.5649
v 5.1298 0.0000 3.3206
v 7.0840 0.0000 3.3206
v 7.0840 0.0000 3.4427
v 5.1298 0.0000 3.4427
v 5.1298 2.7000 3.3206
v 7.0840 2.7000 3.3206
v 7.0840 2.7000 3.4427
v 5.1298 2.7000 3.4427
v 8.6718 0.0000 3.3206
v 8.9160 0.0000 3.3206
v 8.9160 0.0000 3.4427
v 8.6718 0.0000 3.4427
v 8.6718 2.7000 3.3206
v 8.9160 2.7000 3.3206
v 8.9160 2.7000 3.4427
v 8.6718 2.7000 3.4427
v 6.8397 0.0000 3.1985
v 7.0840 0.0000 3.1985
v 7.0840 0.0000 3.3206
v 6.8397 0.0000 3.3206
v 6.8397 2.7000 3.1985
v 7.0840 2.7000 3.1985
v 7.0840 2.7000 3.3206
v 6.8397 2.7000 3.3206
v 10.0153 0.0000 2.8321
v 10.1374 0.0000 2.8321
v 10.1374 0.0000 3.6870
v 10.0153 0.0000 3.6870
v 10.0153 2.7000 2.8321
v 10.1374 2.7000 2.8321
v 10.1374 2.7000 3.6870
v 10.0153 2.7000 3.6870
v 12.5802 0.0000 2.7099
v 12.9466 0.0000 2.7099
v 12.9466 0.0000 3.6870
v 12.5802 0.0000 3.6870
v 12.5802 2.7000 2.7099
v 12.9466 2.7000 2.7099
v 12.9466 2.7000 3.6870
v 12.5802 2.7000 3.6870
v 12.3359 0.0000 2.7099
v 12.4580 0.0000 2.7099
v 12.4580 0.0000 2.9542
v 12.3359 0.0000 2.9542
v 12.3359 2.7000 2.7099
v 12.4580 2.7000 2.7099
v 12.4580 2.7000 2.9542
v 12.3359 2.7000 2.9542
v 12.3359 0.0000 2.5878
v 12.9466 0.0000 2.5878
v 12.9466 0.0000 2.7099
v 12.3359 0.0000 2.7099
v 12.3359 2.7000 2.5878
v 12.9466 2.7000 2.5878
v 12.9466 2.7000 2.7099
v 12.3359 2.7000 2.7099
v 12.7023 0.0000 2.3435
v 12.9466 0.0000 2.3435
v 12.9466 0.0000 2.5878
v 12.7023 0.0000 2.5878
v 12.7023 2.7000 2.3435
v 12.9466 2.7000 2.3435
v 12.9466 2.7000 2.5878
v 12.7023 2.7000 2.5878
v 12.3359 0.0000 2.2214
v 12.9466 0.0000 2.2214
v 12.9466 0.0000 2.3435
v 12.3359 0.0000 2.3435
v 12.3359 2.7000 2.2214
v 12.9466 2.7000 2.2214
v 12.9466 2.7000 2.3435
v 12.3359 2.7000 2.3435
v 5.6183 0.0000 2.0992
v 5.7405 0.0000 2.0992
v 5.7405 0.0000 3.3206
v 5.6183 0.0000 3.3206
v 5.6183 2.7000 2.0992
v 5.7405 2.7000 2.0992
v 5.7405 2.7000 3.3206
v 5.6183 2.7000 3.3206
v 8.7939 0.0000 1.8550
v 8.9160 0.0000 1.8550
v 8.9160 0.0000 3.3206
v 8.7939 0.0000 3.3206
v 8.7939 2.7000 1.8550
v 8.9160 2.7000 1.8550
v 8.9160 2.7000 3.3206
v 8.7939 2.7000 3.3206
v 6.8397 0.0000 1.8550
v 7.0840 0.0000 1.8550
v 7.0840 0.0000 2.4656
v 6.8397 0.0000 2.4656
v 6.8397 2.7000 1.8550
v 7.0840 2.7000 1.8550
v 7.0840 2.7000 2.4656
v 6.8397 2.7000 2.4656
v 5.1298 0.0000 1.8550
v 5.7405 0.0000 1.8550
v 5.7405 0.0000 2.0992
v 5.1298 0.0000 2.0992
v 5.1298 2.7000 1.8550
v 5.7405 2.7000 1.8550
v 5.7405 2.7000 2.0992
v 5.1298 2.7000 2.0992
v 10.0153 0.0000 1.8550
v 10.1374 0.0000 1.8550
v 10.1374 0.0000 2.0992
v 10.0153 0.0000 2.0992
v 10.0153 2.7000 1.8550
v 10.1374 2.7000 1.8550
v 10.1374 2.7000 2.0992
v 10.0153 2.7000 2.0992
v 8.6718 0.0000 1.7328
v 10.1374 0.0000 1.7328
v 10.1374 0.0000 1.8550
v 8.6718 0.0000 1.8550
v 8.6718 2.7000 1.7328
v 10.1374 2.7000 1.7328
v 10.1374 2.7000 1.8550
v 8.6718 2.7000 1.8550
v 5.0076 0.0000 1.7328
v 5.2519 0.0000 1.7328
v 5.2519 0.0000 1.8550
v 5.0076 0.0000 1.8550
v 5.0076 2.7000 1.7328
v 5.2519 2.7000 1.7328
v 5.2519 2.7000 1.8550
v 5.0076 2.7000 1.8550
v 5.6183 0.0000 1.6107
v 7.5725 0.0000 1.6107
v 7.5725 0.0000 1.8550
v 5.6183 0.0000 1.8550
v 5.6183 2.7000 1.6107
v 7.5725 2.7000 1.6107
v 7.5725 2.7000 1.8550
v 5.6183 2.7000 1.8550
v 8.6718 0.0000 1.6107
v 9.0382 0.0000 1.6107
v 9.0382 0.0000 1.7328
v 8.6718 0.0000 1.7328
v 8.6718 2.7000 1.6107
v 9.0382 2.7000 1.6107
v 9.0382 2.7000 1.7328
v 8.6718 2.7000 1.7328
v 4.7634 0.0000 1.6107
v 5.2519 0.0000 1.6107
v 5.2519 0.0000 1.7328
v 4.7634 0.0000 1.7328
v 4.7634 2.7000 1.6107
v 5.2519 2.7000 1.6107
v 5.2519 2.7000 1.7328
v 4.7634 2.7000 1.7328
v 12.3359 0.0000 1.4885
v 12.4580 0.0000 1.4885
v 12.4580 0.0000 2.2214
v 12.3359 0.0000 2.2214
v 12.3359 2.7000 1.4885
v 12.4580 2.7000 1.4885
v 12.4580 2.7000 2.2214
v 12.3359 2.7000 2.2214
v 12.7023 0.0000 1.4885
v 12.9466 0.0000 1.4885
v 12.9466 0.0000 2.2214
v 12.7023 0.0000 2.2214
v 12.7023 2.7000 1.4885
v 12.9466 2.7000 1.4885
v 12.9466 2.7000 2.2214
v 12.7023 2.7000 2.2214
v 6.9618 0.0000 1.3664
v 7.0840 0.0000 1.3664
v 7.0840 0.0000 1.6107
v 6.9618 0.0000 1.6107
v 6.9618 2.7000 1.3664
v 7.0840 2.7000 1.3664
v 7.0840 2.7000 1.6107
v 6.9618 2.7000 1.6107
v 11.4809 0.0000 1.3664
v 12.9466 0.0000 1.3664
v 12.9466 0.0000 1.4885
v 11.4809 0.0000 1.4885
v 11.4809 2.7000 1.3664
v 12.9466 2.7000 1.3664
v 12.9466 2.7000 1.4885
v 11.4809 2.7000 1.4885
v 0.9771 0.0000 1.2443
v 1.3435 0.0000 1.2443
v 1.3435 0.0000 8.2061
v 0.9771 0.0000 8.2061
v 0.9771 2.7000 1.2443
v 1.3435 2.7000 1.2443
v 1.3435 2.7000 8.2061
v 0.9771 2.7000 8.2061
v 10.0153 0.0000 1.2443
v 10.1374 0.0000 1.2443
v 10.1374 0.0000 1.7328
v 10.0153 0.0000 1.7328
v 10.0153 2.7000 1.2443
v 10.1374 2.7000 1.2443
v 10.1374 2.7000 1.7328
v 10.0153 2.7000 1.7328
v 5.6183 0.0000 1.2443
v 5.7405 0.0000 1.2443
v 5.7405 0.0000 1.6107
v 5.6183 0.0000 1.6107
v 5.6183 2.7000 1.2443
v 5.7405 2.7000 1.2443
v 5.7405 2.7000 1.6107
v 5.6183 2.7000 1.6107
v 4.7634 0.0000 1.2443
v 4.8855 0.0000 1.2443
v 4.8855 0.0000 1.6107
v 4.7634 0.0000 1.6107
v 4.7634 2.7000 1.2443
v 4.8855 2.7000 1.2443
v 4.8855 2.7000 1.6107
v 4.7634 2.7000 1.6107
v 8.9160 0.0000 1.2443
v 9.0382 0.0000 1.2443
v 9.0382 0.0000 1.6107
v 8.9160 0.0000 1.6107
v 8.9160 2.7000 1.2443
v 9.0382 2.7000 1.2443
v 9.0382 2.7000 1.6107
v 8.9160 2.7000 1.6107
v 11.4809 0.0000 1.2443
v 11.7252 0.0000 1.2443
v 11.7252 0.0000 1.3664
v 11.4809 0.0000 1.3664
v 11.4809 2.7000 1.2443
v 11.7252 2.7000 1.2443
v 11.7252 2.7000 1.3664
v 11.4809 2.7000 1.3664
v 12.7023 0.0000 1.2443
v 12.9466 0.0000 1.2443
v 12.9466 0.0000 1.3664
v 12.7023 0.0000 1.3664
v 12.7023 2.7000 1.2443
v 12.9466 2.7000 1.2443
v 12.9466 2.7000 1.3664
v 12.7023 2.7000 1.3664
v 6.8397 0.0000 1.2443
v 7.0840 0.0000 1.2443
v 7.0840 0.0000 1.3664
v 6.8397 0.0000 1.3664
v 6.8397 2.7000 1.2443
v 7.0840 2.7000 1.2443
v 7.0840 2.7000 1.3664
v 6.8397 2.7000 1.3664
v 8.9160 0.0000 1.1221
v 12.9466 0.0000 1.1221
v 12.9466 0.0000 1.2443
v 8.9160 0.0000 1.2443
v 8.9160 2.7000 1.1221
v 12.9466 2.7000 1.1221
v 12.9466 2.7000 1.2443
v 8.9160 2.7000 1.2443
v 0.9771 0.0000 1.1221
v 7.0840 0.0000 1.1221
v 7.0840 0.0000 1.2443
v 0.9771 0.0000 1.2443
v 0.9771 2.7000 1.1221
v 7.0840 2.7000 1.1221
v 7.0840 2.7000 1.2443
v 0.9771 2.7000 1.2443
v 4.3104 0.0000 8.3261
v 5.8804 0.0000 8.3261
v 5.8804 0.0000 8.3761
v 4.3104 0.0000 8.3761
v 4.3104 2.1000 8.3261
v 5.8804 2.1000 8.3261
v 5.8804 2.1000 8.3761
v 4.3104 2.1000 8.3761
v 5.7204 1.0000 8.2461
v 5.8004 1.0000 8.2461
v 5.8004 1.0000 8.3261
v 5.7204 1.0000 8.3261
v 5.7204 1.0800 8.2461
v 5.8004 1.0800 8.2461
v 5.8004 1.0800 8.3261
v 5.7204 1.0800 8.3261
v 5.7204 1.0000 8.3761
v 5.8004 1.0000 8.3761
v 5.8004 1.0000 8.4561
v 5.7204 1.0000 8.4561
v 5.7204 1.0800 8.3761
v 5.8004 1.0800 8.3761
v 5.8004 1.0800 8.4561
v 5.7204 1.0800 8.4561
v 8.8529 0.0000 3.6230
v 8.9029 0.0000 3.6230
v 8.9029 0.0000 4.2930
v 8.8529 0.0000 4.2930
v 8.8529 2.1000 3.6230
v 8.9029 2.1000 3.6230
v 8.9029 2.1000 4.2930
v 8.8529 2.1000 4.2930
v 8.7729 1.0000 4.1330
v 8.8529 1.0000 4.1330
v 8.8529 1.0000 4.2130
v 8.7729 1.0000 4.2130
v 8.7729 1.0800 4.1330
v 8.8529 1.0800 4.1330
v 8.8529 1.0800 4.2130
v 8.7729 1.0800 4.2130
v 8.9029 1.0000 4.1330
v 8.9829 1.0000 4.1330
v 8.9829 1.0000 4.2130
v 8.9029 1.0000 4.2130
v 8.9029 1.0800 4.1330
v 8.9829 1.0800 4.1330
v 8.9829 1.0800 4.2130
v 8.9029 1.0800 4.2130
v 7.0292 0.0000 3.3834
v 8.5892 0.0000 3.3834
v 8.5892 0.0000 3.4334
v 7.0292 0.0000 3.4334
v 7.0292 2.1000 3.3834
v 8.5892 2.1000 3.3834
v 8.5892 2.1000 3.4334
v 7.0292 2.1000 3.4334
v 8.4292 1.0000 3.3034
v 8.5092 1.0000 3.3034
v 8.5092 1.0000 3.3834
v 8.4292 1.0000 3.3834
v 8.4292 1.0800 3.3034
v 8.5092 1.0800 3.3034
v 8.5092 1.0800 3.3834
v 8.4292 1.0800 3.3834
v 8.4292 1.0000 3.4334
v 8.5092 1.0000 3.4334
v 8.5092 1.0000 3.5134
v 8.4292 1.0000 3.5134
v 8.4292 1.0800 3.4334
v 8.5092 1.0800 3.4334
v 8.5092 1.0800 3.5134
v 8.4292 1.0800 3.5134
v 6.9216 0.0000 2.4853
v 6.9716 0.0000 2.4853
v 6.9716 0.0000 3.1253
v 6.9216 0.0000 3.1253
v 6.9216 2.1000 2.4853
v 6.9716 2.1000 2.4853
v 6.9716 2.1000 3.1253
v 6.9216 2.1000 3.1253
v 6.8416 1.0000 2.9653
v 6.9216 1.0000 2.9653
v 6.9216 1.0000 3.0453
v 6.8416 1.0000 3.0453
v 6.8416 1.0800 2.9653
v 6.9216 1.0800 2.9653
v 6.9216 1.0800 3.0453
v 6.8416 1.0800 3.0453
v 6.9716 1.0000 2.9653
v 7.0516 1.0000 2.9653
v 7.0516 1.0000 3.0453
v 6.9716 1.0000 3.0453
v 6.9716 1.0800 2.9653
v 7.0516 1.0800 2.9653
v 7.0516 1.0800 3.0453
v 6.9716 1.0800 3.0453
v 10.0055 0.0000 2.1042
v 10.0555 0.0000 2.1042
v 10.0555 0.0000 2.8042
v 10.0055 0.0000 2.8042
v 10.0055 2.1000 2.1042
v 10.0555 2.1000 2.1042
v 10.0555 2.1000 2.8042
v 10.0055 2.1000 2.8042
v 9.9255 1.0000 2.6442
v 10.0055 1.0000 2.6442
v 10.0055 1.0000 2.7242
v 9.9255 1.0000 2.7242
v 9.9255 1.0800 2.6442
v 10.0055 1.0800 2.6442
v 10.0055 1.0800 2.7242
v 9.9255 1.0800 2.7242
v 10.0555 1.0000 2.6442
v 10.1355 1.0000 2.6442
v 10.1355 1.0000 2.7242
v 10.0555 1.0000 2.7242
v 10.0555 1.0800 2.6442
v 10.1355 1.0800 2.6442
v 10.1355 1.0800 2.7242
v 10.0555 1.0800 2.7242
v 7.5992 0.0000 1.7155
v 8.5992 0.0000 1.7155
v 8.5992 0.0000 1.7655
v 7.5992 0.0000 1.7655
v 7.5992 2.1000 1.7155
v 8.5992 2.1000 1.7155
v 8.5992 2.1000 1.7655
v 7.5992 2.1000 1.7655
v 8.4392 1.0000 1.6355
v 8.5192 1.0000 1.6355
v 8.5192 1.0000 1.7155
v 8.4392 1.0000 1.7155
v 8.4392 1.0800 1.6355
v 8.5192 1.0800 1.6355
v 8.5192 1.0800 1.7155
v 8.4392 1.0800 1.7155
v 8.4392 1.0000 1.7655
v 8.5192 1.0000 1.7655
v 8.5192 1.0000 1.8455
v 8.4392 1.0000 1.8455
v 8.4392 1.0800 1.7655
v 8.5192 1.0800 1.7655
v 8.5192 1.0800 1.8455
v 8.4392 1.0800 1.8455
v 2.8452 0.0000 10.1336
v 7.3152 0.0000 10.1336
v 7.3152 0.0000 10.3321
v 2.8452 0.0000 10.3321
v 2.8452 0.5000 10.1336
v 7.3152 0.5000 10.1336
v 7.3152 0.5000 10.3321
v 2.8452 0.5000 10.3321
v 2.8452 2.2000 10.1336
v 7.3152 2.2000 10.1336
v 7.3152 2.2000 10.3321
v 2.8452 2.2000 10.3321
v 2.8452 2.7000 10.1336
v 7.3152 2.7000 10.1336
v 7.3152 2.7000 10.3321
v 2.8452 2.7000 10.3321
v 10.6880 0.0000 8.2481
v 12.7080 0.0000 8.2481
v 12.7080 0.0000 8.4465
v 10.6880 0.0000 8.4465
v 10.6880 0.5000 8.2481
v 12.7080 0.5000 8.2481
v 12.7080 0.5000 8.4465
v 10.6880 0.5000 8.4465
v 10.6880 2.2000 8.2481
v 12.7080 2.2000 8.2481
v 12.7080 2.2000 8.4465
v 10.6880 2.2000 8.4465
v 10.6880 2.7000 8.2481
v 12.7080 2.7000 8.2481
v 12.7080 2.7000 8.4465
v 10.6880 2.7000 8.4465
v 2.6870 -0.0500 8.4504
v 7.4504 -0.0500 8.4504
v 7.4504 -0.0500 10.1603
v 2.6870 -0.0500 10.1603
v 2.6870 0.0000 8.4504
v 7.4504 0.0000 8.4504
v 7.4504 0.0000 10.1603
v 2.6870 0.0000 10.1603
v 2.6870 2.7000 8.4504
v 7.4504 2.7000 8.4504
v 7.4504 2.7000 10.1603
v 2.6870 2.7000 10.1603
v 2.6870 2.7300 8.4504
v 7.4504 2.7300 8.4504
v 7.4504 2.7300 10.1603
v 2.6870 2.7300 10.1603
v 2.6870 -0.0500 8.2061
v 7.4504 -0.0500 8.2061
v 7.4504 -0.0500 8.3282
v 2.6870 -0.0500 8.3282
v 2.6870 0.0000 8.2061
v 7.4504 0.0000 8.2061
v 7.4504 0.0000 8.3282
v 2.6870 0.0000 8.3282
v 2.6870 2.7000 8.2061
v 7.4504 2.7000 8.2061
v 7.4504 2.7000 8.3282
v 2.6870 2.7000 8.3282
v 2.6870 2.7300 8.2061
v 7.4504 2.7300 8.2061
v 7.4504 2.7300 8.3282
v 2.6870 2.7300 8.3282
v 1.3435 -0.0500 3.4427
v 8.7939 -0.0500 3.4427
v 8.7939 -0.0500 8.2061
v 1.3435 -0.0500 8.2061
v 1.3435 0.0000 3.4427
v 8.7939 0.0000 3.4427
v 8.7939 0.0000 8.2061
v 1.3435 0.0000 8.2061
v 1.3435 2.7000 3.4427
v 8.7939 2.7000 3.4427
v 8.7939 2.7000 8.2061
v 1.3435 2.7000 8.2061
v 1.3435 2.7300 3.4427
v 8.7939 2.7300 3.4427
v 8.7939 2.7300 8.2061
v 1.3435 2.7300 8.2061
v 1.3435 -0.0500 3.3206
v 5.1298 -0.0500 3.3206
v 5.1298 -0.0500 3.4427
v 1.3435 -0.0500 3.4427
v 1.3435 0.0000 3.3206
v 5.1298 0.0000 3.3206
v 5.1298 0.0000 3.4427
v 1.3435 0.0000 3.4427
v 1.3435 2.7000 3.3206
v 5.1298 2.7000 3.3206
v 5.1298 2.7000 3.4427
v 1.3435 2.7000 3.4427
v 1.3435 2.7300 3.3206
v 5.1298 2.7300 3.3206
v 5.1298 2.7300 3.4427
v 1.3435 2.7300 3.4427
v 1.3435 -0.0500 2.0992
v 5.6183 -0.0500 2.0992
v 5.6183 -0.0500 3.3206
v 1.3435 -0.0500 3.3206
v 1.3435 0.0000 2.0992
v 5.6183 0.0000 2.0992
v 5.6183 0.0000 3.3206
v 1.3435 0.0000 3.3206
v 1.3435 2.7000 2.0992
v 5.6183 2.7000 2.0992
v 5.6183 2.7000 3.3206
v 1.3435 2.7000 3.3206
v 1.3435 2.7300 2.0992
v 5.6183 2.7300 2.0992
v 5.6183 2.7300 3.3206
v 1.3435 2.7300 3.3206
v 1.3435 -0.0500 1.9771
v 5.1298 -0.0500 1.9771
v 5.1298 -0.0500 2.0992
v 1.3435 -0.0500 2.0992
v 1.3435 0.0000 1.9771
v 5.1298 0.0000 1.9771
v 5.1298 0.0000 2.0992
v 1.3435 0.0000 2.0992
v 1.3435 2.7000 1.9771
v 5.1298 2.7000 1.9771
v 5.1298 2.7000 2.0992
v 1.3435 2.7000 2.0992
v 1.3435 2.7300 1.9771
v 5.1298 2.7300 1.9771
v 5.1298 2.7300 2.0992
v 1.3435 2.7300 2.0992
v 1.3435 -0.0500 1.7328
v 5.0076 -0.0500 1.7328
v 5.0076 -0.0500 1.9771
v 1.3435 -0.0500 1.9771
v 1.3435 0.0000 1.7328
v 5.0076 0.0000 1.7328
v 5.0076 0.0000 1.9771
v 1.3435 0.0000 1.9771
v 1.3435 2.7000 1.7328
v 5.0076 2.7000 1.7328
v 5.0076 2.7000 1.9771
v 1.3435 2.7000 1.9771
v 1.3435 2.7300 1.7328
v 5.0076 2.7300 1.7328
v 5.0076 2.7300 1.9771
v 1.3435 2.7300 1.9771
v 1.3435 -0.0500 1.2443
v 4.7634 -0.0500 1.2443
v 4.7634 -0.0500 1.7328
v 1.3435 -0.0500 1.7328
v 1.3435 0.0000 1.2443
v 4.7634 0.0000 1.2443
v 4.7634 0.0000 1.7328
v 1.3435 0.0000 1.7328
v 1.3435 2.7000 1.2443
v 4.7634 2.7000 1.2443
v 4.7634 2.7000 1.7328
v 1.3435 2.7000 1.7328
v 1.3435 2.7300 1.2443
v 4.7634 2.7300 1.2443
v 4.7634 2.7300 1.7328
v 1.3435 2.7300 1.7328
v 9.1603 -0.0500 5.6412
v 12.7023 -0.0500 5.6412
v 12.7023 -0.0500 8.2061
v 9.1603 -0.0500 8.2061
v 9.1603 0.0000 5.6412
v 12.7023 0.0000 5.6412
v 12.7023 0.0000 8.2061
v 9.1603 0.0000 8.2061
v 9.1603 2.7000 5.6412
v 12.7023 2.7000 5.6412
v 12.7023 2.7000 8.2061
v 9.1603 2.7000 8.2061
v 9.1603 2.7300 5.6412
v 12.7023 2.7300 5.6412
v 12.7023 2.7300 8.2061
v 9.1603 2.7300 8.2061
v 8.9160 -0.0500 4.4198
v 12.7023 -0.0500 4.4198
v 12.7023 -0.0500 5.6412
v 8.9160 -0.0500 5.6412
v 8.9160 0.0000 4.4198
v 12.7023 0.0000 4.4198
v 12.7023 0.0000 5.6412
v 8.9160 0.0000 5.6412
v 8.9160 2.7000 4.4198
v 12.7023 2.7000 4.4198
v 12.7023 2.7000 5.6412
v 8.9160 2.7000 5.6412
v 8.9160 2.7300 4.4198
v 12.7023 2.7300 4.4198
v 12.7023 2.7300 5.6412
v 8.9160 2.7300 5.6412
v 10.1374 -0.0500 3.8092
v 12.7023 -0.0500 3.8092
v 12.7023 -0.0500 4.4198
v 10.1374 -0.0500 4.4198
v 10.1374 0.0000 3.8092
v 12.7023 0.0000 3.8092
v 12.7023 0.0000 4.4198
v 10.1374 0.0000 4.4198
v 10.1374 2.7000 3.8092
v 12.7023 2.7000 3.8092
v 12.7023 2.7000 4.4198
v 10.1374 2.7000 4.4198
v 10.1374 2.7300 3.8092
v 12.7023 2.7300 3.8092
v 12.7023 2.7300 4.4198
v 10.1374 2.7300 4.4198
v 8.9160 -0.0500 1.8550
v 10.0153 -0.0500 1.8550
v 10.0153 -0.0500 4.4198
v 8.9160 -0.0500 4.4198
v 8.9160 0.0000 1.8550
v 10.0153 0.0000 1.8550
v 10.0153 0.0000 4.4198
v 8.9160 0.0000 4.4198
v 8.9160 2.7000 1.8550
v 10.0153 2.7000 1.8550
v 10.0153 2.7000 4.4198
v 8.9160 2.7000 4.4198
v 8.9160 2.7300 1.8550
v 10.0153 2.7300 1.8550
v 10.0153 2.7300 4.4198
v 8.9160 2.7300 4.4198
v 5.7405 -0.0500 1.8550
v 6.8397 -0.0500 1.8550
v 6.8397 -0.0500 3.3206
v 5.7405 -0.0500 3.3206
v 5.7405 0.0000 1.8550
v 6.8397 0.0000 1.8550
v 6.8397 0.0000 3.3206
v 5.7405 0.0000 3.3206
v 5.7405 2.7000 1.8550
v 6.8397 2.7000 1.8550
v 6.8397 2.7000 3.3206
v 5.7405 2.7000 3.3206
v 5.7405 2.7300 1.8550
v 6.8397 2.7300 1.8550
v 6.8397 2.7300 3.3206
v 5.7405 2.7300 3.3206
v 7.0840 -0.0500 1.8550
v 8.7939 -0.0500 1.8550
v 8.7939 -0.0500 3.3206
v 7.0840 -0.0500 3.3206
v 7.0840 0.0000 1.8550
v 8.7939 0.0000 1.8550
v 8.7939 0.0000 3.3206
v 7.0840 0.0000 3.3206
v 7.0840 2.7000 1.8550
v 8.7939 2.7000 1.8550
v 8.7939 2.7000 3.3206
v 7.0840 2.7000 3.3206
v 7.0840 2.7300 1.8550
v 8.7939 2.7300 1.8550
v 8.7939 2.7300 3.3206
v 7.0840 2.7300 3.3206
v 10.1374 -0.0500 2.9542
v 12.5802 -0.0500 2.9542
v 12.5802 -0.0500 3.6870
v 10.1374 -0.0500 3.6870
v 10.1374 0.0000 2.9542
v 12.5802 0.0000 2.9542
v 12.5802 0.0000 3.6870
v 10.1374 0.0000 3.6870
v 10.1374 2.7000 2.9542
v 12.5802 2.7000 2.9542
v 12.5802 2.7000 3.6870
v 10.1374 2.7000 3.6870
v 10.1374 2.7300 2.9542
v 12.5802 2.7300 2.9542
v 12.5802 2.7300 3.6870
v 10.1374 2.7300 3.6870
v 12.4580 -0.0500 2.7099
v 12.5802 -0.0500 2.7099
v 12.5802 -0.0500 2.9542
v 12.4580 -0.0500 2.9542
v 12.4580 0.0000 2.7099
v 12.5802 0.0000 2.7099
v 12.5802 0.0000 2.9542
v 12.4580 0.0000 2.9542
v 12.4580 2.7000 2.7099
v 12.5802 2.7000 2.7099
v 12.5802 2.7000 2.9542
v 12.4580 2.7000 2.9542
v 12.4580 2.7300 2.7099
v 12.5802 2.7300 2.7099
v 12.5802 2.7300 2.9542
v 12.4580 2.7300 2.9542
v 10.1374 -0.0500 2.5878
v 12.3359 -0.0500 2.5878
v 12.3359 -0.0500 2.9542
v 10.1374 -0.0500 2.9542
v 10.1374 0.0000 2.5878
v 12.3359 0.0000 2.5878
v 12.3359 0.0000 2.9542
v 10.1374 0.0000 2.9542
v 10.1374 2.7000 2.5878
v 12.3359 2.7000 2.5878
v 12.3359 2.7000 2.9542
v 10.1374 2.7000 2.9542
v 10.1374 2.7300 2.5878
v 12.3359 2.7300 2.5878
v 12.3359 2.7300 2.9542
v 10.1374 2.7300 2.9542
v 10.1374 -0.0500 2.3435
v 12.7023 -0.0500 2.3435
v 12.7023 -0.0500 2.5878
v 10.1374 -0.0500 2.5878
v 10.1374 0.0000 2.3435
v 12.7023 0.0000 2.3435
v 12.7023 0.0000 2.5878
v 10.1374 0.0000 2.5878
v 10.1374 2.7000 2.3435
v 12.7023 2.7000 2.3435
v 12.7023 2.7000 2.5878
v 10.1374 2.7000 2.5878
v 10.1374 2.7300 2.3435
v 12.7023 2.7300 2.3435
v 12.7023 2.7300 2.5878
v 10.1374 2.7300 2.5878
v 10.1374 -0.0500 1.4885
v 12.3359 -0.0500 1.4885
v 12.3359 -0.0500 2.3435
v 10.1374 -0.0500 2.3435
v 10.1374 0.0000 1.4885
v 12.3359 0.0000 1.4885
v 12.3359 0.0000 2.3435
v 10.1374 0.0000 2.3435
v 10.1374 2.7000 1.4885
v 12.3359 2.7000 1.4885
v 12.3359 2.7000 2.3435
v 10.1374 2.7000 2.3435
v 10.1374 2.7300 1.4885
v 12.3359 2.7300 1.4885
v 12.3359 2.7300 2.3435
v 10.1374 2.7300 2.3435
v 10.1374 -0.0500 1.2443
v 11.4809 -0.0500 1.2443
v 11.4809 -0.0500 1.4885
v 10.1374 -0.0500 1.4885
v 10.1374 0.0000 1.2443
v 11.4809 0.0000 1.2443
v 11.4809 0.0000 1.4885
v 10.1374 0.0000 1.4885
v 10.1374 2.7000 1.2443
v 11.4809 2.7000 1.2443
v 11.4809 2.7000 1.4885
v 10.1374 2.7000 1.4885
v 10.1374 2.7300 1.2443
v 11.4809 2.7300 1.2443
v 11.4809 2.7300 1.4885
v 10.1374 2.7300 1.4885
v 6.5878 0.0000 7.3740
v 6.9847 0.0000 7.3740
v 6.9847 0.0000 7.7405
v 6.5878 0.0000 7.7405
v 6.5878 0.9000 7.3740
v 6.9847 0.9000 7.3740
v 6.9847 0.9000 7.7405
v 6.5878 0.9000 7.7405
v 9.2214 0.0000 5.7176
v 9.9389 0.0000 5.7176
v 9.9389 0.0000 8.1374
v 9.2214 0.0000 8.1374
v 9.2214 2.1000 5.7176
v 9.9389 2.1000 5.7176
v 9.9389 2.1000 8.1374
v 9.2214 2.1000 8.1374
v 5.2214 0.0000 6.1985
v 5.6183 0.0000 6.1985
v 5.6183 0.0000 6.5649
v 5.2214 0.0000 6.5649
v 5.2214 0.9000 6.1985
v 5.6183 0.9000 6.1985
v 5.6183 0.9000 6.5649
v 5.2214 0.9000 6.5649
v 5.9008 0.0000 5.5191
v 7.6870 0.0000 5.5191
v 7.6870 0.0000 7.1832
v 5.9008 0.0000 7.1832
v 5.9008 0.7500 5.5191
v 7.6870 0.7500 5.5191
v 7.6870 0.7500 7.1832
v 5.9008 0.7500 7.1832
v 7.8702 0.0000 6.1069
v 8.2672 0.0000 6.1069
v 8.2672 0.0000 6.4733
v 7.8702 0.0000 6.4733
v 7.8702 0.9000 6.1069
v 8.2672 0.9000 6.1069
v 8.2672 0.9000 6.4733
v 7.8702 0.9000 6.4733
v 6.6336 0.0000 4.9084
v 7.0305 0.0000 4.9084
v 7.0305 0.0000 5.2748
v 6.6336 0.0000 5.2748
v 6.6336 0.9000 4.9084
v 7.0305 0.9000 4.9084
v 7.0305 0.9000 5.2748
v 6.6336 0.9000 5.2748
v 10.2214 0.0000 3.9542
v 11.0534 0.0000 3.9542
v 11.0534 0.0000 4.4046
v 10.2214 0.0000 4.4046
v 10.2214 2.1000 3.9542
v 11.0534 2.1000 3.9542
v 11.0534 2.1000 4.4046
v 10.2214 2.1000 4.4046
v 11.2290 0.0000 3.9542
v 12.4733 0.0000 3.9542
v 12.4733 0.0000 4.3435
v 11.2290 0.0000 4.3435
v 11.2290 0.5500 3.9542
v 12.4733 0.5500 3.9542
v 12.4733 0.5500 4.3435
v 11.2290 0.5500 4.3435
v 10.2137 0.0000 3.1145
v 11.4962 0.0000 3.1145
v 11.4962 0.0000 3.5344
v 10.2137 0.0000 3.5344
v 10.2137 0.5500 3.1145
v 11.4962 0.5500 3.1145
v 11.4962 0.5500 3.5344
v 10.2137 0.5500 3.5344
v 5.8550 0.0000 3.0076
v 6.1221 0.0000 3.0076
v 6.1221 0.0000 3.2824
v 5.8550 0.0000 3.2824
v 5.8550 0.4000 3.0076
v 6.1221 0.4000 3.0076
v 6.1221 0.4000 3.2824
v 5.8550 0.4000 3.2824
v 1.5344 0.0000 1.4275
v 4.5496 0.0000 1.4275
v 4.5496 0.0000 2.8244
v 1.5344 0.0000 2.8244
v 1.5344 0.9000 1.4275
v 4.5496 0.9000 1.4275
v 4.5496 0.9000 2.8244
v 1.5344 0.9000 2.8244
v 10.2061 0.0000 1.2977
v 11.1298 0.0000 1.2977
v 11.1298 0.0000 1.8092
v 10.2061 0.0000 1.8092
v 10.2061 2.1000 1.2977
v 11.1298 2.1000 1.2977
v 11.1298 2.1000 1.8092
v 10.2061 2.1000 1.8092
g Walls
usemtl wall
f 1 2 3
f 1 3 4
f 5 7 6
f 5 8 7
f 1 6 2
f 1 5 6
f 2 7 3
f 2 6 7
f 3 8 4
f 3 7 8
f 4 5 1
f 4 8 5
f 9 10 11
f 9 11 12
f 13 15 14
f 13 16 15
f 9 14 10
f 9 13 14
f 10 15 11
f 10 14 15
f 11 16 12
f 11 15 16
f 12 13 9
f 12 16 13
f 17 18 19
f 17 19 20
f 21 23 22
f 21 24 23
f 17 22 18
f 17 21 22
f 18 23 19
f 18 22 23
f 19 24 20
f 19 23 24
f 20 21 17
f 20 24 21
f 25 26 27
f 25 27 28
f 29 31 30
f 29 32 31
f 25 30 26
f 25 29 30
f 26 31 27
f 26 30 31
f 27 32 28
f 27 31 32
f 28 29 25
f 28 32 29
f 33 34 35
f 33 35 36
f 37 39 38
f 37 40 39
f 33 38 34
f 33 37 38
f 34 39 35
f 34 38 39
f 35 40 36
f 35 39 40
f 36 37 33
f 36 40 37
f 41 42 43
f 41 43 44
f 45 47 46
f 45 48 47
f 41 46 42
f 41 45 46
f 42 47 43
f 42 46 47
f 43 48 44
f 43 47 48
f 44 45 41
f 44 48 45
f 49 50 51
f 49 51 52
f 53 55 54
f 53 56 55
f 49 54 50
f 49 53 54
f 50 55 51
f 50 54 55
f 51 56 52
f 51 55 56
f 52 53 49
f 52 56 53
f 57 58 59
f 57 59 60
f 61 63 62
f 61 64 63
f 57 62 58
f 57 61 62
f 58 63 59
f 58 62 63
f 59 64 60
f 59 63 64
f 60 61 57
f 60 64 61
f 65 66 67
f 65 67 68
f 69 71 70
f 69 72 71
f 65 70 66
f 65 69 70
f 66 71 67
f 66 70 71
f 67 72 68
f 67 71 72
f 68 69 65
f 68 72 69
f 73 74 75
f 73 75 76
f 77 79 78
f 77 80 79
f 73 78 74
f 73 77 78
f 74 79 75
f 74 78 79
f 75 80 76
f 75 79 80
f 76 77 73
f 76 80 77
f 81 82 83
f 81 83 84
f 85 87 86
f 85 88 87
f 81 86 82
f 81 85 86
f 82 87 83
f 82 86 87
f 83 88 84
f 83 87 88
f 84 85 81
f 84 88 85
f 89 90 91
f 89 91 92
f 93 95 94
f 93 96 95
f 89 94 90
f 89 93 94
f 90 95 91
f 90 94 95
f 91 96 92
f 91 95 96
f 92 93 89
f 92 96 93
f 97 98 99
f 97 99 100
f 101 103 102
f 101 104 103
f 97 102 98
f 97 101 102
f 98 103 99
f 98 102 103
f 99 104 100
f 99 103 104
f 100 101 97
f 100 104 101
f 105 106 107
f 105 107 108
f 109 111 110
f 109 112 111
f 105 110 106
f 105 109 110
f 106 111 107
f 106 110 111
f 107 112 108
f 107 111 112
f 108 109 105
f 108 112 109
f 113 114 115
f 113 115 116
f 117 119 118
f 117 120 119
f 113 118 114
f 113 117 118
f 114 119 115
f 114 118 119
f 115 120 116
f 115 119 120
f 116 117 113
f 116 120 117
f 121 122 123
f 121 123 124
f 125 127 126
f 125 128 127
f 121 126 122
f 121 125 126
f 122 127 123
f 122 126 127
f 123 128 124
f 123 127 128
f 124 125 121
f 124 128 125
f 129 130 131
f 129 131 132
f 133 135 134
f 133 136 135
f 129 134 130
f 129 133 134
f 130 135 131
f 130 134 135
f 131 136 132
f 131 135 136
f 132 133 129
f 132 136 133
f 137 138 139
f 137 139 140
f 141 143 142
f 141 144 143
f 137 142 138
f 137 141 142
f 138 143 139
f 138 142 143
f 139 144 140
f 139 143 144
f 140 141 137
f 140 144 141
f 145 146 147
f 145 147 148
f 149 151 150
f 149 152 151
f 145 150 146
f 145 149 150
f 146 151 147
f 146 150 151
f 147 152 148
f 147 151 152
f 148 149 145
f 148 152 149
f 153 154 155
f 153 155 156
f 157 159 158
f 157 160 159
f 153 158 154
f 153 157 158
f 154 159 155
f 154 158 159
f 155 160 156
f 155 159 160
f 156 157 153
f 156 160 157
f 161 162 163
f 161 163 164
f 165 167 166
f 165 168 167
f 161 166 162
f 161 165 166
f 162 167 163
f 162 166 167
f 163 168 164
f 163 167 168
f 164 165 161
f 164 168 165
f 169 170 171
f 169 171 172
f 173 175 174
f 173 176 175
f 169 174 170
f 169 173 174
f 170 175 171
f 170 174 175
f 171 176 172
f 171 175 176
f 172 173 169
f 172 176 173
f 177 178 179
f 177 179 180
f 181 183 182
f 181 184 183
f 177 182 178
f 177 181 182
f 178 183 179
f 178 182 183
f 179 184 180
f 179 183 184
f 180 181 177
f 180 184 181
f 185 186 187
f 185 187 188
f 189 191 190
f 189 192 191
f 185 190 186
f 185 189 190
f 186 191 187
f 186 190 191
f 187 192 188
f 187 191 192
f 188 189 185
f 188 192 189
f 193 194 195
f 193 195 196
f 197 199 198
f 197 200 199
f 193 198 194
f 193 197 198
f 194 199 195
f 194 198 199
f 195 200 196
f 195 199 200
f 196 197 193
f 196 200 197
f 201 202 203
f 201 203 204
f 205 207 206
f 205 208 207
f 201 206 202
f 201 205 206
f 202 207 203
f 202 206 207
f 203 208 204
f 203 207 208
f 204 205 201
f 204 208 205
f 209 210 211
f 209 211 212
f 213 215 214
f 213 216 215
f 209 214 210
f 209 213 214
f 210 215 211
f 210 214 215
f 211 216 212
f 211 215 216
f 212 213 209
f 212 216 213
f 217 218 219
f 217 219 220
f 221 223 222
f 221 224 223
f 217 222 218
f 217 221 222
f 218 223 219
f 218 222 223
f 219 224 220
f 219 223 224
f 220 221 217
f 220 224 221
f 225 226 227
f 225 227 228
f 229 231 230
f 229 232 231
f 225 230 226
f 225 229 230
f 226 231 227
f 226 230 231
f 227 232 228
f 227 231 232
f 228 229 225
f 228 232 229
f 233 234 235
f 233 235 236
f 237 239 238
f 237 240 239
f 233 238 234
f 233 237 238
f 234 239 235
f 234 238 239
f 235 240 236
f 235 239 240
f 236 237 233
f 236 240 237
f 241 242 243
f 241 243 244
f 245 247 246
f 245 248 247
f 241 246 242
f 241 245 246
f 242 247 243
f 242 246 247
f 243 248 244
f 243 247 248
f 244 245 241
f 244 248 245
f 249 250 251
f 249 251 252
f 253 255 254
f 253 256 255
f 249 254 250
f 249 253 254
f 250 255 251
f 250 254 255
f 251 256 252
f 251 255 256
f 252 253 249
f 252 256 253
f 257 258 259
f 257 259 260
f 261 263 262
f 261 264 263
f 257 262 258
f 257 261 262
f 258 263 259
f 258 262 263
f 259 264 260
f 259 263 264
f 260 261 257
f 260 264 261
f 265 266 267
f 265 267 268
f 269 271 270
f 269 272 271
f 265 270 266
f 265 269 270
f 266 271 267
f 266 270 271
f 267 272 268
f 267 271 272
f 268 269 265
f 268 272 269
f 273 274 275
f 273 275 276
f 277 279 278
f 277 280 279
f 273 278 274
f 273 277 278
f 274 279 275
f 274 278 279
f 275 280 276
f 275 279 280
f 276 277 273
f 276 280 277
f 281 282 283
f 281 283 284
f 285 287 286
f 285 288 287
f 281 286 282
f 281 285 286
f 282 287 283
f 282 286 287
f 283 288 284
f 283 287 288
f 284 285 281
f 284 288 285
f 289 290 291
f 289 291 292
f 293 295 294
f 293 296 295
f 289 294 290
f 289 293 294
f 290 295 291
f 290 294 295
f 291 296 292
f 291 295 296
f 292 293 289
f 292 296 293
f 297 298 299
f 297 299 300
f 301 303 302
f 301 304 303
f 297 302 298
f 297 301 302
f 298 303 299
f 298 302 303
f 299 304 300
f 299 303 304
f 300 301 297
f 300 304 301
f 305 306 307
f 305 307 308
f 309 311 310
f 309 312 311
f 305 310 306
f 305 309 310
f 306 311 307
f 306 310 311
f 307 312 308
f 307 311 312
f 308 309 305
f 308 312 309
f 313 314 315
f 313 315 316
f 317 319 318
f 317 320 319
f 313 318 314
f 313 317 318
f 314 319 315
f 314 318 319
f 315 320 316
f 315 319 320
f 316 317 313
f 316 320 317
f 321 322 323
f 321 323 324
f 325 327 326
f 325 328 327
f 321 326 322
f 321 325 326
f 322 327 323
f 322 326 327
f 323 328 324
f 323 327 328
f 324 325 321
f 324 328 325
f 329 330 331
f 329 331 332
f 333 335 334
f 333 336 335
f 329 334 330
f 329 333 334
f 330 335 331
f 330 334 335
f 331 336 332
f 331 335 336
f 332 333 329
f 332 336 333
f 337 338 339
f 337 339 340
f 341 343 342
f 341 344 343
f 337 342 338
f 337 341 342
f 338 343 339
f 338 342 343
f 339 344 340
f 339 343 344
f 340 341 337
f 340 344 341
f 345 346 347
f 345 347 348
f 349 351 350
f 349 352 351
f 345 350 346
f 345 349 350
f 346 351 347
f 346 350 351
f 347 352 348
f 347 351 352
f 348 349 345
f 348 352 349
f 353 354 355
f 353 355 356
f 357 359 358
f 357 360 359
f 353 358 354
f 353 357 358
f 354 359 355
f 354 358 359
f 355 360 356
f 355 359 360
f 356 357 353
f 356 360 357
f 361 362 363
f 361 363 364
f 365 367 366
f 365 368 367
f 361 366 362
f 361 365 366
f 362 367 363
f 362 366 367
f 363 368 364
f 363 367 368
f 364 365 361
f 364 368 365
f 369 370 371
f 369 371 372
f 373 375 374
f 373 376 375
f 369 374 370
f 369 373 374
f 370 375 371
f 370 374 375
f 371 376 372
f 371 375 376
f 372 373 369
f 372 376 373
g Door_667_397
f 377 378 379
f 377 379 380
f 381 383 382
f 381 384 383
f 377 382 378
f 377 381 382
f 378 383 379
f 378 382 383
f 379 384 380
f 379 383 384
f 380 381 377
f 380 384 381
g Door_667_397_Handle
usemtl door_handle
f 385 386 387
f 385 387 388
f 389 391 390
f 389 392 391
f 385 390 386
f 385 389 390
f 386 391 387
f 386 390 391
f 387 392 388
f 387 391 392
f 388 389 385
f 388 392 389
f 393 394 395
f 393 395 396
f 397 399 398
f 397 400 399
f 393 398 394
f 393 397 398
f 394 399 395
f 394 398 399
f 395 400 396
f 395 399 400
f 396 397 393
f 396 400 397
g Door_1163_972
usemtl wall
f 401 402 403
f 401 403 404
f 405 407 406
f 405 408 407
f 401 406 402
f 401 405 406
f 402 407 403
f 402 406 407
f 403 408 404
f 403 407 408
f 404 405 401
f 404 408 405
g Door_1163_972_Handle
usemtl door_handle
f 409 410 411
f 409 411 412
f 413 415 414
f 413 416 415
f 409 414 410
f 409 413 414
f 410 415 411
f 410 414 415
f 411 416 412
f 411 415 416
f 412 413 409
f 412 416 413
f 417 418 419
f 417 419 420
f 421 423 422
f 421 424 423
f 417 422 418
f 417 421 422
f 418 423 419
f 418 422 423
f 419 424 420
f 419 423 424
f 420 421 417
f 420 424 421
g Door_1023_1044
usemtl wall
f 425 426 427
f 425 427 428
f 429 431 430
f 429 432 431
f 425 430 426
f 425 429 430
f 426 431 427
f 426 430 431
f 427 432 428
f 427 431 432
f 428 429 425
f 428 432 429
g Door_1023_1044_Handle
usemtl door_handle
f 433 434 435
f 433 435 436
f 437 439 438
f 437 440 439
f 433 438 434
f 433 437 438
f 434 439 435
f 434 438 439
f 435 440 436
f 435 439 440
f 436 437 433
f 436 440 437
f 441 442 443
f 441 443 444
f 445 447 446
f 445 448 447
f 441 446 442
f 441 445 446
f 442 447 443
f 442 446 447
f 443 448 444
f 443 447 448
f 444 445 441
f 444 448 445
g Door_910_1123
usemtl wall
f 449 450 451
f 449 451 452
f 453 455 454
f 453 456 455
f 449 454 450
f 449 453 454
f 450 455 451
f 450 454 455
f 451 456 452
f 451 455 456
f 452 453 449
f 452 456 453
g Door_910_1123_Handle
usemtl door_handle
f 457 458 459
f 457 459 460
f 461 463 462
f 461 464 463
f 457 462 458
f 457 461 462
f 458 463 459
f 458 462 463
f 459 464 460
f 459 463 464
f 460 461 457
f 460 464 461
f 465 466 467
f 465 467 468
f 469 471 470
f 469 472 471
f 465 470 466
f 465 469 470
f 466 471 467
f 466 470 471
f 467 472 468
f 467 471 472
f 468 469 465
f 468 472 469
g Door_1314_1169
usemtl wall
f 473 474 475
f 473 475 476
f 477 479 478
f 477 480 479
f 473 478 474
f 473 477 478
f 474 479 475
f 474 478 479
f 475 480 476
f 475 479 480
f 476 477 473
f 476 480 477
g Door_1314_1169_Handle
usemtl door_handle
f 481 482 483
f 481 483 484
f 485 487 486
f 485 488 487
f 481 486 482
f 481 485 486
f 482 487 483
f 482 486 487
f 483 488 484
f 483 487 488
f 484 485 481
f 484 488 485
f 489 490 491
f 489 491 492
f 493 495 494
f 493 496 495
f 489 494 490
f 489 493 494
f 490 495 491
f 490 494 495
f 491 496 492
f 491 495 496
f 492 493 489
f 492 496 493
g Door_1061_1263
usemtl wall
f 497 498 499
f 497 499 500
f 501 503 502
f 501 504 503
f 497 502 498
f 497 501 502
f 498 503 499
f 498 502 503
f 499 504 500
f 499 503 504
f 500 501 497
f 500 504 501
g Door_1061_1263_Handle
usemtl door_handle
f 505 506 507
f 505 507 508
f 509 511 510
f 509 512 511
f 505 510 506
f 505 509 510
f 506 511 507
f 506 510 511
f 507 512 508
f 507 511 512
f 508 509 505
f 508 512 509
f 513 514 515
f 513 515 516
f 517 519 518
f 517 520 519
f 513 518 514
f 513 517 518
f 514 519 515
f 514 518 519
f 515 520 516
f 515 519 520
f 516 517 513
f 516 520 517
g Window_665_150_Bottom
usemtl wall
f 521 522 523
f 521 523 524
f 525 527 526
f 525 528 527
f 521 526 522
f 521 525 526
f 522 527 523
f 522 526 527
f 523 528 524
f 523 527 528
f 524 525 521
f 524 528 525
g Window_665_150_Top
f 529 530 531
f 529 531 532
f 533 535 534
f 533 536 535
f 529 534 530
f 529 533 534
f 530 535 531
f 530 534 535
f 531 536 532
f 531 535 536
f 532 533 529
f 532 536 533
g Window_1532_397_Bottom
f 537 538 539
f 537 539 540
f 541 543 542
f 541 544 543
f 537 542 538
f 537 541 542
f 538 543 539
f 538 542 543
f 539 544 540
f 539 543 544
f 540 541 537
f 540 544 541
g Window_1532_397_Top
f 545 546 547
f 545 547 548
f 549 551 550
f 549 552 551
f 545 550 546
f 545 549 550
f 546 551 547
f 546 550 551
f 547 552 548
f 547 551 552
f 548 549 545
f 548 552 549
g Floor_1_Балкон
usemtl floor
f 553 554 555
f 553 555 556
f 557 559 558
f 557 560 559
f 553 558 554
f 553 557 558
f 554 559 555
f 554 558 559
f 555 560 556
f 555 559 560
f 556 557 553
f 556 560 557
g Ceiling_1_Балкон
usemtl ceiling
f 561 562 563
f 561 563 564
f 565 567 566
f 565 568 567
f 561 566 562
f 561 565 566
f 562 567 563
f 562 566 567
f 563 568 564
f 563 567 568
f 564 565 561
f 564 568 565
g Floor_2_Кухня-Гостинная
usemtl floor
f 569 570 571
f 569 571 572
f 573 575 574
f 573 576 575
f 569 574 570
f 569 573 574
f 570 575 571
f 570 574 575
f 571 576 572
f 571 575 576
f 572 573 569
f 572 576 573
g Ceiling_2_Кухня-Гостинная
usemtl ceiling
f 577 578 579
f 577 579 580
f 581 583 582
f 581 584 583
f 577 582 578
f 577 581 582
f 578 583 579
f 578 582 583
f 579 584 580
f 579 583 584
f 580 581 577
f 580 584 581
g Floor_2_Кухня-Гостинная
usemtl floor
f 585 586 587
f 585 587 588
f 589 591 590
f 589 592 591
f 585 590 586
f 585 589 590
f 586 591 587
f 586 590 591
f 587 592 588
f 587 591 592
f 588 589 585
f 588 592 589
g Ceiling_2_Кухня-Гостинная
usemtl ceiling
f 593 594 595
f 593 595 596
f 597 599 598
f 597 600 599
f 593 598 594
f 593 597 598
f 594 599 595
f 594 598 599
f 595 600 596
f 595 599 600
f 596 597 593
f 596 600 597
g Floor_2_Кухня-Гостинная
usemtl floor
f 601 602 603
f 601 603 604
f 605 607 606
f 605 608 607
f 601 606 602
f 601 605 606
f 602 607 603
f 602 606 607
f 603 608 604
f 603 607 608
f 604 605 601
f 604 608 605
g Ceiling_2_Кухня-Гостинная
usemtl ceiling
f 609 610 611
f 609 611 612
f 613 615 614
f 613 616 615
f 609 614 610
f 609 613 614
f 610 615 611
f 610 614 615
f 611 616 612
f 611 615 616
f 612 613 609
f 612 616 613
g Floor_2_Кухня-Гостинная
usemtl floor
f 617 618 619
f 617 619 620
f 621 623 622
f 621 624 623
f 617 622 618
f 617 621 622
f 618 623 619
f 618 622 623
f 619 624 620
f 619 623 624
f 620 621 617
f 620 624 621
g Ceiling_2_Кухня-Гостинная
usemtl ceiling
f 625 626 627
f 625 627 628
f 629 631 630
f 629 632 631
f 625 630 626
f 625 629 630
f 626 631 627
f 626 630 631
f 627 632 628
f 627 631 632
f 628 629 625
f 628 632 629
g Floor_2_Кухня-Гостинная
usemtl floor
f 633 634 635
f 633 635 636
f 637 639 638
f 637 640 639
f 633 638 634
f 633 637 638
f 634 639 635
f 634 638 639
f 635 640 636
f 635 639 640
f 636 637 633
f 636 640 637
g Ceiling_2_Кухня-Гостинная
usemtl ceiling
f 641 642 643
f 641 643 644
f 645 647 646
f 645 648 647
f 641 646 642
f 641 645 646
f 642 647 643
f 642 646 647
f 643 648 644
f 643 647 648
f 644 645 641
f 644 648 645
g Floor_2_Кухня-Гостинная
usemtl floor
f 649 650 651
f 649 651 652
f 653 655 654
f 653 656 655
f 649 654 650
f 649 653 654
f 650 655 651
f 650 654 655
f 651 656 652
f 651 655 656
f 652 653 649
f 652 656 653
g Ceiling_2_Кухня-Гостинная
usemtl ceiling
f 657 658 659
f 657 659 660
f 661 663 662
f 661 664 663
f 657 662 658
f 657 661 662
f 658 663 659
f 658 662 663
f 659 664 660
f 659 663 664
f 660 661 657
f 660 664 661
g Floor_2_Кухня-Гостинная
usemtl floor
f 665 666 667
f 665 667 668
f 669 671 670
f 669 672 671
f 665 670 666
f 665 669 670
f 666 671 667
f 666 670 671
f 667 672 668
f 667 671 672
f 668 669 665
f 668 672 669
g Ceiling_2_Кухня-Гостинная
usemtl ceiling
f 673 674 675
f 673 675 676
f 677 679 678
f 677 680 679
f 673 678 674
f 673 677 678
f 674 679 675
f 674 678 679
f 675 680 676
f 675 679 680
f 676 677 673
f 676 680 677
g Floor_3_Спальня_1
usemtl floor
f 681 682 683
f 681 683 684
f 685 687 686
f 685 688 687
f 681 686 682
f 681 685 686
f 682 687 683
f 682 686 687
f 683 688 684
f 683 687 688
f 684 685 681
f 684 688 685
g Ceiling_3_Спальня_1
usemtl ceiling
f 689 690 691
f 689 691 692
f 693 695 694
f 693 696 695
f 689 694 690
f 689 693 694
f 690 695 691
f 690 694 695
f 691 696 692
f 691 695 696
f 692 693 689
f 692 696 693
g Floor_3_Спальня_1
usemtl floor
f 697 698 699
f 697 699 700
f 701 703 702
f 701 704 703
f 697 702 698
f 697 701 702
f 698 703 699
f 698 702 703
f 699 704 700
f 699 703 704
f 700 701 697
f 700 704 701
g Ceiling_3_Спальня_1
usemtl ceiling
f 705 706 707
f 705 707 708
f 709 711 710
f 709 712 711
f 705 710 706
f 705 709 710
f 706 711 707
f 706 710 711
f 707 712 708
f 707 711 712
f 708 709 705
f 708 712 709
g Floor_3_Спальня_1
usemtl floor
f 713 714 715
f 713 715 716
f 717 719 718
f 717 720 719
f 713 718 714
f 713 717 718
f 714 719 715
f 714 718 719
f 715 720 716
f 715 719 720
f 716 717 713
f 716 720 717
g Ceiling_3_Спальня_1
usemtl ceiling
f 721 722 723
f 721 723 724
f 725 727 726
f 725 728 727
f 721 726 722
f 721 725 726
f 722 727 723
f 722 726 727
f 723 728 724
f 723 727 728
f 724 725 721
f 724 728 725
g Floor_3_Спальня_1
usemtl floor
f 729 730 731
f 729 731 732
f 733 735 734
f 733 736 735
f 729 734 730
f 729 733 734
f 730 735 731
f 730 734 735
f 731 736 732
f 731 735 736
f 732 733 729
f 732 736 733
g Ceiling_3_Спальня_1
usemtl ceiling
f 737 738 739
f 737 739 740
f 741 743 742
f 741 744 743
f 737 742 738
f 737 741 742
f 738 743 739
f 738 742 743
f 739 744 740
f 739 743 744
f 740 741 737
f 740 744 741
g Floor_4_Ванная
usemtl floor
f 745 746 747
f 745 747 748
f 749 751 750
f 749 752 751
f 745 750 746
f 745 749 750
f 746 751 747
f 746 750 751
f 747 752 748
f 747 751 752
f 748 749 745
f 748 752 749
g Ceiling_4_Ванная
usemtl ceiling
f 753 754 755
f 753 755 756
f 757 759 758
f 757 760 759
f 753 758 754
f 753 757 758
f 754 759 755
f 754 758 759
f 755 760 756
f 755 759 760
f 756 757 753
f 756 760 757
g Floor_5_Прихожая
usemtl floor
f 761 762 763
f 761 763 764
f 765 767 766
f 765 768 767
f 761 766 762
f 761 765 766
f 762 767 763
f 762 766 767
f 763 768 764
f 763 767 768
f 764 765 761
f 764 768 765
g Ceiling_5_Прихожая
usemtl ceiling
f 769 770 771
f 769 771 772
f 773 775 774
f 773 776 775
f 769 774 770
f 769 773 774
f 770 775 771
f 770 774 775
f 771 776 772
f 771 775 776
f 772 773 769
f 772 776 773
g Floor_6_Спальня_2
usemtl floor
f 777 778 779
f 777 779 780
f 781 783 782
f 781 784 783
f 777 782 778
f 777 781 782
f 778 783 779
f 778 782 783
f 779 784 780
f 779 783 784
f 780 781 777
f 780 784 781
g Ceiling_6_Спальня_2
usemtl ceiling
f 785 786 787
f 785 787 788
f 789 791 790
f 789 792 791
f 785 790 786
f 785 789 790
f 786 791 787
f 786 790 791
f 787 792 788
f 787 791 792
f 788 789 785
f 788 792 789
g Floor_6_Спальня_2
usemtl floor
f 793 794 795
f 793 795 796
f 797 799 798
f 797 800 799
f 793 798 794
f 793 797 798
f 794 799 795
f 794 798 799
f 795 800 796
f 795 799 800
f 796 797 793
f 796 800 797
g Ceiling_6_Спальня_2
usemtl ceiling
f 801 802 803
f 801 803 804
f 805 807 806
f 805 808 807
f 801 806 802
f 801 805 806
f 802 807 803
f 802 806 807
f 803 808 804
f 803 807 808
f 804 805 801
f 804 808 805
g Floor_6_Спальня_2
usemtl floor
f 809 810 811
f 809 811 812
f 813 815 814
f 813 816 815
f 809 814 810
f 809 813 814
f 810 815 811
f 810 814 815
f 811 816 812
f 811 815 816
f 812 813 809
f 812 816 813
g Ceiling_6_Спальня_2
usemtl ceiling
f 817 818 819
f 817 819 820
f 821 823 822
f 821 824 823
f 817 822 818
f 817 821 822
f 818 823 819
f 818 822 823
f 819 824 820
f 819 823 824
f 820 821 817
f 820 824 821
g Floor_6_Спальня_2
usemtl floor
f 825 826 827
f 825 827 828
f 829 831 830
f 829 832 831
f 825 830 826
f 825 829 830
f 826 831 827
f 826 830 831
f 827 832 828
f 827 831 832
f 828 829 825
f 828 832 829
g Ceiling_6_Спальня_2
usemtl ceiling
f 833 834 835
f 833 835 836
f 837 839 838
f 837 840 839
f 833 838 834
f 833 837 838
f 834 839 835
f 834 838 839
f 835 840 836
f 835 839 840
f 836 837 833
f 836 840 837
g Floor_6_Спальня_2
usemtl floor
f 841 842 843
f 841 843 844
f 845 847 846
f 845 848 847
f 841 846 842
f 841 845 846
f 842 847 843
f 842 846 847
f 843 848 844
f 843 847 848
f 844 845 841
f 844 848 845
g Ceiling_6_Спальня_2
usemtl ceiling
f 849 850 851
f 849 851 852
f 853 855 854
f 853 856 855
f 849 854 850
f 849 853 854
f 850 855 851
f 850 854 855
f 851 856 852
f 851 855 856
f 852 853 849
f 852 856 853
g Floor_6_Спальня_2
usemtl floor
f 857 858 859
f 857 859 860
f 861 863 862
f 861 864 863
f 857 862 858
f 857 861 862
f 858 863 859
f 858 862 863
f 859 864 860
f 859 863 864
f 860 861 857
f 860 864 861
g Ceiling_6_Спальня_2
usemtl ceiling
f 865 866 867
f 865 867 868
f 869 871 870
f 869 872 871
f 865 870 866
f 865 869 870
f 866 871 867
f 866 870 871
f 867 872 868
f 867 871 872
f 868 869 865
f 868 872 869
g Furniture_1_chair_Кухня-Гостинная
usemtl furn_chair
f 873 874 875
f 873 875 876
f 877 879 878
f 877 880 879
f 873 878 874
f 873 877 878
f 874 879 875
f 874 878 879
f 875 880 876
f 875 879 880
f 876 877 873
f 876 880 877
g Furniture_2_wardrobe_Спальня_1
usemtl furn_wardrobe
f 881 882 883
f 881 883 884
f 885 887 886
f 885 888 887
f 881 886 882
f 881 885 886
f 882 887 883
f 882 886 887
f 883 888 884
f 883 887 888
f 884 885 881
f 884 888 885
g Furniture_3_chair_Кухня-Гостинная
usemtl furn_chair
f 889 890 891
f 889 891 892
f 893 895 894
f 893 896 895
f 889 894 890
f 889 893 894
f 890 895 891
f 890 894 895
f 891 896 892
f 891 895 896
f 892 893 889
f 892 896 893
g Furniture_4_table_Кухня-Гостинная
usemtl furn_table
f 897 898 899
f 897 899 900
f 901 903 902
f 901 904 903
f 897 902 898
f 897 901 902
f 898 903 899
f 898 902 903
f 899 904 900
f 899 903 904
f 900 901 897
f 900 904 901
g Furniture_5_chair_Кухня-Гостинная
usemtl furn_chair
f 905 906 907
f 905 907 908
f 909 911 910
f 909 912 911
f 905 910 906
f 905 909 910
f 906 911 907
f 906 910 911
f 907 912 908
f 907 911 912
f 908 909 905
f 908 912 909
g Furniture_6_chair_Кухня-Гостинная
f 913 914 915
f 913 915 916
f 917 919 918
f 917 920 919
f 913 918 914
f 913 917 918
f 914 919 915
f 914 918 919
f 915 920 916
f 915 919 920
f 916 917 913
f 916 920 917
g Furniture_7_wardrobe_Спальня_1
usemtl furn_wardrobe
f 921 922 923
f 921 923 924
f 925 927 926
f 925 928 927
f 921 926 922
f 921 925 926
f 922 927 923
f 922 926 927
f 923 928 924
f 923 927 928
f 924 925 921
f 924 928 925
g Furniture_8_bed_Спальня_1
usemtl furn_bed
f 929 930 931
f 929 931 932
f 933 935 934
f 933 936 935
f 929 934 930
f 929 933 934
f 930 935 931
f 930 934 935
f 931 936 932
f 931 935 936
f 932 933 929
f 932 936 933
g Furniture_9_bed_Спальня_1
f 937 938 939
f 937 939 940
f 941 943 942
f 941 944 943
f 937 942 938
f 937 941 942
f 938 943 939
f 938 942 943
f 939 944 940
f 939 943 944
f 940 941 937
f 940 944 941
g Furniture_10_toilet_Кухня-Гостинная
usemtl furn_toilet
f 945 946 947
f 945 947 948
f 949 951 950
f 949 952 951
f 945 950 946
f 945 949 950
f 946 951 947
f 946 950 951
f 947 952 948
f 947 951 952
f 948 949 945
f 948 952 949
g Furniture_11_kitchen_Кухня-Гостинная
usemtl furn_kitchen
f 953 954 955
f 953 955 956
f 957 959 958
f 957 960 959
f 953 958 954
f 953 957 958
f 954 959 955
f 954 958 959
f 955 960 956
f 955 959 960
f 956 957 953
f 956 960 957
g Furniture_12_wardrobe_Спальня_1
usemtl furn_wardrobe
f 961 962 963
f 961 963 964
f 965 967 966
f 965 968 967
f 961 966 962
f 961 965 966
f 962 967 963
f 962 966 967
f 963 968 964
f 963 967 968
f 964 965 961
f 964 968 965
